<svg width="0" height="0"  display="none" >
<symbol xmlns="http://www.w3.org/2000/svg" viewBox="0 0 78 52" id="logo">
   <path d="M63.0559 15.8815L54.2119 15.8947L27.8012 40.7922H10.0354V23.4593L34.2348 0.848633L17.993 0.899213L0 17.6625V51.1511H34.0283L63.0418 23.5687L63.0559 15.8815Z"/>
    <path d="M43.9721 0.848633L14.9586 28.4318L14.9453 36.1182L23.7884 36.1049L50.1991 11.2075H67.9649V28.5404L43.7656 51.1511L60.0074 51.1013L78.0004 34.338V0.848633H43.9721Z"/>
</symbol>
<symbol xmlns="http://www.w3.org/2000/svg" viewBox="0 0 15 15" id="arrow">
    <path d="M8.0853 11.6669L14.7604 4.99166C14.9149 4.83727 15 4.63118 15 4.41142C15 4.19167 14.9149 3.98557 14.7604 3.83118L14.2689 3.3396C13.9487 3.01973 13.4282 3.01973 13.1084 3.3396L7.50311 8.94492L1.89157 3.33338C1.73706 3.17899 1.53109 3.09375 1.31146 3.09375C1.09158 3.09375 0.885606 3.17899 0.730973 3.33338L0.239635 3.82496C0.0851249 3.97947 3.76698e-06 4.18545 3.75737e-06 4.4052C3.74777e-06 4.62496 0.0851249 4.83105 0.239635 4.98544L6.9208 11.6669C7.0758 11.8216 7.28275 11.9066 7.50275 11.9061C7.7236 11.9066 7.93042 11.8216 8.0853 11.6669Z"/>
</symbol>
<symbol xmlns="http://www.w3.org/2000/svg" viewBox="0 0 46 42" id="like">
    <path d="M33.7812 0.695312C31.2851 0.695312 28.9966 1.4863 26.9794 3.04634C25.0456 4.54197 23.758 6.44693 23 7.83214C22.242 6.44684 20.9544 4.54197 19.0206 3.04634C17.0034 1.4863 14.7149 0.695312 12.2188 0.695312C5.25298 0.695312 0 6.39293 0 13.9485C0 22.1112 6.55347 27.696 16.4746 36.1505C18.1593 37.5863 20.0689 39.2138 22.0538 40.9494C22.3154 41.1785 22.6514 41.3047 23 41.3047C23.3486 41.3047 23.6846 41.1785 23.9462 40.9495C25.9312 39.2136 27.8408 37.5862 29.5265 36.1496C39.4465 27.696 46 22.1112 46 13.9485C46 6.39293 40.747 0.695312 33.7812 0.695312Z"/>
</symbol>
<symbol xmlns="http://www.w3.org/2000/svg" viewBox="0 0 10 8" id="check">
    <path d="M4.5266 7.388C4.07322 7.84139 3.33756 7.84139 2.8844 7.388L0.340036 4.84358C-0.113345 4.3904 -0.113345 3.65474 0.340036 3.20156C0.793199 2.74817 1.52885 2.74817 1.98223 3.20156L3.49817 4.71732C3.61261 4.83154 3.79839 4.83154 3.91304 4.71732L8.01777 0.612505C8.47093 0.159113 9.20658 0.159113 9.65996 0.612505C9.87768 0.830229 10 1.12563 10 1.43351C10 1.74139 9.87768 2.03679 9.65996 2.25452L4.5266 7.388Z"/>
</symbol>
<symbol xmlns="http://www.w3.org/2000/svg" viewBox="0 0 512 512" id="close">
<path d="M256 8C119 8 8 119 8 256s111 248 248 248 248-111 248-248S393 8 256 8zm0 448c-110.5 0-200-89.5-200-200S145.5 56 256 56s200 89.5 200 200-89.5 200-200 200zm101.8-262.2L295.6 256l62.2 62.2c4.7 4.7 4.7 12.3 0 17l-22.6 22.6c-4.7 4.7-12.3 4.7-17 0L256 295.6l-62.2 62.2c-4.7 4.7-12.3 4.7-17 0l-22.6-22.6c-4.7-4.7-4.7-12.3 0-17l62.2-62.2-62.2-62.2c-4.7-4.7-4.7-12.3 0-17l22.6-22.6c4.7-4.7 12.3-4.7 17 0l62.2 62.2 62.2-62.2c4.7-4.7 12.3-4.7 17 0l22.6 22.6c4.7 4.7 4.7 12.3 0 17z"></path>
</symbol>
</svg>